<?xml version="1.0" encoding="UTF-8" standalone="no"?>
<svg
   viewBox="0 0 16 16"
   version="1.1"
   id="svg1"
   sodipodi:docname="MdBold.svg"
   inkscape:version="1.4.4 (dcaf3e7, 2026-05-05)"
   xmlns:inkscape="http://www.inkscape.org/namespaces/inkscape"
   xmlns:sodipodi="http://sodipodi.sourceforge.net/DTD/sodipodi-0.dtd"
   xmlns="http://www.w3.org/2000/svg"
   xmlns:svg="http://www.w3.org/2000/svg">
  <sodipodi:namedview
     id="namedview1"
     pagecolor="#ffffff"
     bordercolor="#000000"
     borderopacity="0.25"
     inkscape:showpageshadow="2"
     inkscape:pageopacity="0.0"
     inkscape:pagecheckerboard="0"
     inkscape:deskcolor="#d1d1d1"
     inkscape:zoom="48.9375"
     inkscape:cx="8"
     inkscape:cy="7.9795658"
     inkscape:window-width="1920"
     inkscape:window-height="1001"
     inkscape:window-x="-9"
     inkscape:window-y="41"
     inkscape:window-maximized="1"
     inkscape:current-layer="svg1" />
  <defs
     id="defs1">
    <style
       id="style1">.fg{fill:#424242;fill-opacity:1}</style>
  </defs>
  <!-- Bold B stem + bowls -->
  <path
     class="fg"
     d="M 3,2 H 8.2 C 10.1,2 11.5,3.4 11.5,5.2 11.5,6.3 10.9,7.2 10,7.7 11.2,8.2 12,9.3 12,10.7 12,12.7 10.4,14 8.3,14 H 3 Z M 5,3.8 V 7 H 8 C 8.9,7 9.5,6.4 9.5,5.5 9.5,4.6 8.9,3.8 8,3.8 Z M 5,8.6 V 12.2 H 8.1 C 9.1,12.2 9.8,11.5 9.8,10.5 9.8,9.5 9.1,8.6 8.1,8.6 Z"
     id="path1"
     style="stroke:#b2b2b2;stroke-opacity:1;stroke-linejoin:round;paint-order:markers stroke fill;stroke-width:0.3;stroke-dasharray:none" />
</svg>
